<svg id="Layer_1" height="512" viewBox="0 0 128 128" width="512" xmlns="http://www.w3.org/2000/svg" data-name="Layer 1"><path d="m82.994 47.078h17.4a6.88 6.88 0 0 0 1.287-13.638 9.894 9.894 0 0 0 -19.062-2.76 8.2 8.2 0 0 0 .375 16.4zm0-12.907a4.6 4.6 0 0 1 .65.053 1.759 1.759 0 0 0 1.949-1.343 6.392 6.392 0 0 1 12.622 1.431c0 .208-.011.413-.03.615a1.751 1.751 0 0 0 1.9 1.909c.1-.009.2-.017.307-.017a3.379 3.379 0 1 1 0 6.759h-17.4a4.7 4.7 0 0 1 0-9.407z"/><path d="m28.712 36.407h22.16a9.972 9.972 0 0 0 .144-19.942 12.125 12.125 0 0 0 -23.493 3.458 8.285 8.285 0 0 0 1.189 16.484zm0-13.069c.146 0 .29.011.433.023a1.751 1.751 0 0 0 1.9-1.909c-.026-.273-.041-.549-.041-.829a8.622 8.622 0 0 1 17.025-1.931 1.745 1.745 0 0 0 1.946 1.343 6.468 6.468 0 1 1 .9 12.872h-22.163a4.785 4.785 0 1 1 0-9.569z"/><path d="m117.743 116.221h-.058c-.074-.013-7.66.175-16.983-6.662a69.073 69.073 0 0 0 -11.387-7.089l3.347-3.587c.312.006.624.016.934.016a47.6 47.6 0 0 0 25.053-7.099 1.75 1.75 0 1 0 -1.8-3 44.347 44.347 0 0 1 -20.875 6.529l12.3-13.186a1.75 1.75 0 0 0 -1.274-2.943h-18.88l-2.837-12.076v-5.451a1.75 1.75 0 0 0 -1.75-1.75h-32.446l-7.479-11a1.752 1.752 0 0 0 -1.447-.766h-9.361a1.75 1.75 0 0 0 -1.58 2.5l4.409 9.259h-4.9a1.75 1.75 0 0 0 -1.75 1.75v5.451l-2.833 12.083h-5.146a1.75 1.75 0 0 0 -1.75 1.75v2.15a22.444 22.444 0 0 0 5.757 15.025 32.536 32.536 0 0 1 -11.845 4.818c-.67-.361-1.34-.736-2.012-1.138a1.75 1.75 0 1 0 -1.8 3c19.38 11.61 37.65 6.915 52.966.791 16.2-6.477 26.028-.758 36.315 6.786 9.528 6.987 17.44 7.342 18.944 7.342h.246a1.75 1.75 0 0 0 -.079-3.5zm-82.172-64.559h5.663l5.619 8.261h-7.348zm46.212 11.761v2.156h-49.3v-2.156zm-49.663 5.656h50.026l2.378 10.121h-6.178v-5.059a1.75 1.75 0 0 0 -1.75-1.75h-6.812a1.75 1.75 0 0 0 -1.75 1.75v5.059h-6.247v-5.059a1.75 1.75 0 0 0 -1.75-1.75h-6.811a1.75 1.75 0 0 0 -1.75 1.75v5.059h-6.247v-5.059a1.75 1.75 0 0 0 -1.75-1.75h-6.812a1.75 1.75 0 0 0 -1.75 1.75v5.059h-5.175zm39.414 10.121v-3.309h3.312v3.309zm-16.559 0v-3.309h3.312v3.309zm-16.559 0v-3.309h3.312v3.309zm-20.253 26.078a39.412 39.412 0 0 0 9.453-4.673 22.427 22.427 0 0 0 14.171 5.03h9.931c-10.34 3.099-21.718 4.341-33.555-.357zm43.406-3.142h-19.782a19.059 19.059 0 0 1 -19.037-19.036v-.4h80.224l-17.122 18.35c-6.776-2.376-14.517-2.692-24.283 1.086z"/></svg>