<?xml version="1.0"?>
<svg xmlns="http://www.w3.org/2000/svg" id="Layer_1" data-name="Layer 1" viewBox="0 0 128 128" width="512" height="512"><title>PARROT</title><circle cx="66.964" cy="26.165" r="3.461"/><path d="M117.75,84.95H91.86l7.867-10.36a1.75,1.75,0,0,0-1.394-2.809h-5.5a1.751,1.751,0,0,0-1.246.521L79.1,84.95H66.564a21.541,21.541,0,0,0,9.071-17.573V50.366A17.9,17.9,0,0,0,92.556,34.272H98a1.75,1.75,0,0,0,1.75-1.75A17.908,17.908,0,0,0,81.863,14.635H74.639A10.571,10.571,0,0,0,65.024,8.5H37.338a1.75,1.75,0,0,0-1.668,2.28,19.855,19.855,0,0,0,11.4,12.327,33.763,33.763,0,0,0-11.48,25.37v7.061C28.84,61.684,21.191,77.9,18.066,84.95H10.25A1.75,1.75,0,0,0,8.5,86.7v7.165a1.75,1.75,0,0,0,1.75,1.75H32.74L16.853,116.7a1.75,1.75,0,0,0,1.4,2.8H37.338a1.749,1.749,0,0,0,1.624-1.1L48.1,95.615h9.042l5.131,7.987a1.748,1.748,0,0,0,1.472.8h4.01a1.75,1.75,0,0,0,1.616-2.421l-2.643-6.371H117.75a1.75,1.75,0,0,0,1.75-1.75V86.7A1.75,1.75,0,0,0,117.75,84.95Zm-45.616-66.7V46.793a14.376,14.376,0,0,1,0-28.541Zm3.5,28.614V34.272H89.028A14.392,14.392,0,0,1,75.634,46.866Zm20.51-16.093H75.634V18.135h6.229A14.408,14.408,0,0,1,96.144,30.772ZM39.926,12h25.1a7.077,7.077,0,0,1,5.507,2.635h-1.1A33.646,33.646,0,0,0,50.385,20.52,16.333,16.333,0,0,1,39.926,12ZM62.2,19.013a17.863,17.863,0,0,0,9.939,31.308V67.377A18.045,18.045,0,0,1,63.284,82.9a19.642,19.642,0,0,0-24.2-29.715V48.478A30.391,30.391,0,0,1,62.2,19.013Zm-22.825,38a16.262,16.262,0,0,1,22.35,5.42c4.568,7.491,2.2,17.121-5.5,22.4-3.623,2.482-22.612,2.815-35.362,2.441C24.763,78.339,33.386,60.663,39.371,57.014ZM36.154,116H21.76L37.123,95.615h7.211ZM116,92.115H64.113A1.75,1.75,0,0,0,62.5,94.536l2.643,6.371h-.434L59.575,92.92a1.748,1.748,0,0,0-1.472-.8H12V88.45h4.582a1.734,1.734,0,0,0,1.6,2.235c1.259.05,6.1.225,12.051.225,8.637,0,19.592-.37,25.255-2.028a21.58,21.58,0,0,0,3.056-.432H79.833a1.751,1.751,0,0,0,1.246-.521L93.565,75.281h1.242L86.94,85.642a1.75,1.75,0,0,0,1.394,2.809H116Z"/><path d="M46.92,60.858h.05a10.276,10.276,0,0,1,8.961,4.865A1.75,1.75,0,0,0,58.919,63.9a13.7,13.7,0,0,0-12.047-6.541,1.75,1.75,0,0,0,.048,3.5Z"/><path d="M41.07,62.6a1.746,1.746,0,0,0,.912-.257c.138-.084.276-.164.416-.242a1.75,1.75,0,1,0-1.692-3.062c-.185.1-.368.207-.55.318A1.75,1.75,0,0,0,41.07,62.6Z"/></svg>
