<svg width="20" height="16" viewBox="0 0 20 16" fill="none" xmlns="http://www.w3.org/2000/svg">
<path d="M4.16512 3.46437V1.34986C4.16512 1.16292 4.23744 0.983645 4.36618 0.851462C4.49491 0.719279 4.66951 0.64502 4.85157 0.64502H8.74146C8.88999 0.64502 9.03451 0.694483 9.15333 0.785987L11.533 2.61857C11.6519 2.71007 11.7964 2.75954 11.9449 2.75954H17.8942C18.0762 2.75954 18.2508 2.8338 18.3795 2.96598C18.5083 3.09816 18.5806 3.27744 18.5806 3.46437V11.2959C18.5806 11.3782 18.5648 11.4597 18.5342 11.5357C18.5035 11.6117 18.4585 11.6808 18.4019 11.7389C18.3452 11.7971 18.278 11.8433 18.2039 11.8747C18.1299 11.9062 18.0506 11.9224 17.9704 11.9224H15.8348M15.8348 6.28373V14.1153C15.8348 14.2814 15.7705 14.4408 15.6561 14.5583C15.5416 14.6758 15.3864 14.7418 15.2246 14.7418H2.10576C1.9237 14.7418 1.7491 14.6675 1.62037 14.5354C1.49163 14.4032 1.41931 14.2239 1.41931 14.037V4.16921C1.41931 3.98228 1.49163 3.803 1.62037 3.67082C1.7491 3.53863 1.9237 3.46437 2.10576 3.46437H5.99566C6.14418 3.46437 6.2887 3.51384 6.40753 3.60534L8.78723 5.43792C8.90605 5.52943 9.05057 5.57889 9.1991 5.57889H15.1483C15.3304 5.57889 15.505 5.65315 15.6337 5.78533C15.7625 5.91752 15.8348 6.09679 15.8348 6.28373Z" stroke="url(#paint0_linear)" stroke-linecap="round" stroke-linejoin="round"/>
<defs>
<linearGradient id="paint0_linear" x1="2.18609" y1="12.0634" x2="12.643" y2="16.2745" gradientUnits="userSpaceOnUse">
<stop stop-color="#5C72E8"/>
<stop offset="1" stop-color="#5068E2"/>
</linearGradient>
</defs>
</svg>
