<svg width="8" height="8" viewBox="0 0 8 8" fill="none" xmlns="http://www.w3.org/2000/svg">
<path d="M6.26711 0.585874C6.53649 0.316498 6.97324 0.316497 7.24261 0.585873C7.51199 0.85525 7.51199 1.292 7.24261 1.56137L1.38963 7.41436C1.12025 7.68373 0.683503 7.68374 0.414127 7.41436C0.14475 7.14498 0.14475 6.70824 0.414127 6.43886L6.26711 0.585874Z" fill="white"/>
<path d="M7.24261 6.43886C7.51199 6.70824 7.51199 7.14498 7.24261 7.41436C6.97324 7.68374 6.53649 7.68374 6.26711 7.41436L0.414127 1.56137C0.144751 1.292 0.144751 0.85525 0.414127 0.585873C0.683503 0.316497 1.12025 0.316497 1.38962 0.585873L7.24261 6.43886Z" fill="white"/>
</svg>
