<svg width="17" height="18" viewBox="0 0 17 18" fill="none" xmlns="http://www.w3.org/2000/svg">
<path d="M16.1039 8.38461H13.6423C13.3159 8.38461 13.0028 8.51428 12.772 8.7451C12.5412 8.97591 12.4116 9.28896 12.4116 9.61538V12.6923C12.4116 13.0187 12.5412 13.3318 12.772 13.5626C13.0028 13.7934 13.3159 13.9231 13.6423 13.9231H14.8731C15.1995 13.9231 15.5126 13.7934 15.7434 13.5626C15.9742 13.3318 16.1039 13.0187 16.1039 12.6923V8.38461ZM16.1039 8.38461C16.1039 7.41014 15.911 6.4453 15.5364 5.54572C15.1617 4.64613 14.6128 3.82958 13.9211 3.14315C13.2295 2.45671 12.4088 1.91395 11.5064 1.54616C10.604 1.17837 9.6377 0.992824 8.66326 1.00021C7.68881 0.992824 6.72254 1.17837 5.82014 1.54616C4.91774 1.91395 4.09705 2.45671 3.40539 3.14315C2.71373 3.82958 2.16477 4.64613 1.79015 5.54572C1.41553 6.4453 1.22266 7.41014 1.22266 8.38461V12.6923C1.22266 13.0187 1.35233 13.3318 1.58314 13.5626C1.81395 13.7934 2.127 13.9231 2.45342 13.9231H3.68419C4.01061 13.9231 4.32366 13.7934 4.55448 13.5626C4.78529 13.3318 4.91496 13.0187 4.91496 12.6923V9.61538C4.91496 9.28896 4.78529 8.97591 4.55448 8.7451C4.32366 8.51428 4.01061 8.38461 3.68419 8.38461H1.22266" stroke="url(#paint0_linear)" stroke-width="1.4" stroke-linecap="round" stroke-linejoin="round"/>
<path d="M16.1039 12.6924V14.5385C16.1039 15.1914 15.8445 15.8175 15.3829 16.2791C14.9213 16.7407 14.2952 17.0001 13.6423 17.0001H9.22266" stroke="url(#paint1_linear)" stroke-width="1.4" stroke-linecap="round" stroke-linejoin="round"/>
<defs>
<linearGradient id="paint0_linear" x1="1.88756" y1="11.4677" x2="11.0904" y2="14.9732" gradientUnits="userSpaceOnUse">
<stop stop-color="#5C72E8"/>
<stop offset="1" stop-color="#5068E2"/>
</linearGradient>
<linearGradient id="paint1_linear" x1="9.53011" y1="16.1816" x2="13.3394" y2="18.1945" gradientUnits="userSpaceOnUse">
<stop stop-color="#5C72E8"/>
<stop offset="1" stop-color="#5068E2"/>
</linearGradient>
</defs>
</svg>
