<svg width="18" height="18" viewBox="0 0 18 18" fill="none" xmlns="http://www.w3.org/2000/svg">
<path d="M6.85494 12.2174H2.43054C2.32386 12.2174 2.22156 12.1751 2.14613 12.0996C2.0707 12.0242 2.02832 11.9219 2.02832 11.8152V7.39081C2.02832 6.11071 2.53684 4.88305 3.442 3.97789C4.34716 3.07272 5.57483 2.56421 6.85492 2.56421H6.85493C8.13503 2.56421 9.3627 3.07273 10.2679 3.97789C11.173 4.88306 11.6815 6.11072 11.6815 7.39082V7.39083C11.6815 8.67093 11.173 9.89859 10.2679 10.8038C9.3627 11.7089 8.13504 12.2174 6.85494 12.2174V12.2174Z" stroke="#5C72E8" stroke-linecap="round" stroke-linejoin="round"/>
<path d="M6.59326 12.2177C6.92633 13.1587 7.54287 13.9734 8.35803 14.5496C9.17319 15.1258 10.1469 15.4352 11.1452 15.4352H15.5696C15.6762 15.4352 15.7785 15.3928 15.854 15.3174C15.9294 15.242 15.9718 15.1397 15.9718 15.033V10.6086C15.9718 9.37414 15.4988 8.18661 14.6501 7.29018C13.8014 6.39375 12.6415 5.85656 11.4089 5.78906" stroke="#5C72E8" stroke-linecap="round" stroke-linejoin="round"/>
</svg>
