<svg width="17" height="19" viewBox="0 0 17 19" fill="none" xmlns="http://www.w3.org/2000/svg">
<path d="M0.756836 2.41667C0.756836 1.63426 1.39211 1 2.17575 1H6.63521C6.97106 1 7.24332 1.27183 7.24332 1.60714C7.24332 1.94246 6.97106 2.21429 6.63521 2.21429H2.17575C2.06381 2.21429 1.97305 2.30489 1.97305 2.41667V16.5833C1.97305 16.6951 2.06381 16.7857 2.17575 16.7857H6.63521C6.97106 16.7857 7.24332 17.0575 7.24332 17.3929C7.24332 17.7282 6.97106 18 6.63521 18H2.17575C1.39211 18 0.756836 17.3657 0.756836 16.5833V2.41667Z" fill="#F79141"/>
<path d="M13.735 10.1071L11.0586 12.9277C10.8276 13.1711 10.838 13.5554 11.0819 13.786C11.3257 14.0166 11.7106 14.0062 11.9415 13.7628L15.5902 9.91756C15.8124 9.68339 15.8124 9.31662 15.5902 9.08244L11.9415 5.2372C11.7106 4.99378 11.3257 4.98339 11.0819 5.21401C10.838 5.44462 10.8276 5.8289 11.0586 6.07232L13.735 8.89286H7.04062C6.70477 8.89286 6.43251 9.16468 6.43251 9.5C6.43251 9.83532 6.70477 10.1071 7.04062 10.1071H13.735Z" fill="#F79141"/>
<path d="M0.756836 2.41667C0.756836 1.63426 1.39211 1 2.17575 1H6.63521C6.97106 1 7.24332 1.27183 7.24332 1.60714C7.24332 1.94246 6.97106 2.21429 6.63521 2.21429H2.17575C2.06381 2.21429 1.97305 2.30489 1.97305 2.41667V16.5833C1.97305 16.6951 2.06381 16.7857 2.17575 16.7857H6.63521C6.97106 16.7857 7.24332 17.0575 7.24332 17.3929C7.24332 17.7282 6.97106 18 6.63521 18H2.17575C1.39211 18 0.756836 17.3657 0.756836 16.5833V2.41667Z" stroke="#F79141" stroke-width="0.6" stroke-linecap="round" stroke-linejoin="round"/>
<path d="M13.735 10.1071L11.0586 12.9277C10.8276 13.1711 10.838 13.5554 11.0819 13.786C11.3257 14.0166 11.7106 14.0062 11.9415 13.7628L15.5902 9.91756C15.8124 9.68339 15.8124 9.31662 15.5902 9.08244L11.9415 5.2372C11.7106 4.99378 11.3257 4.98339 11.0819 5.21401C10.838 5.44462 10.8276 5.8289 11.0586 6.07232L13.735 8.89286H7.04062C6.70477 8.89286 6.43251 9.16468 6.43251 9.5C6.43251 9.83532 6.70477 10.1071 7.04062 10.1071H13.735Z" stroke="#F79141" stroke-width="0.6" stroke-linecap="round" stroke-linejoin="round"/>
</svg>
