<svg width="17" height="17" viewBox="0 0 17 17" fill="none" xmlns="http://www.w3.org/2000/svg">
<path d="M5.77273 5.77273H11.2273M5.77273 8.5H11.2273M5.77273 11.2273H8.5M15.9383 11.2266H11.2273V15.938M10.9449 16H1.68182C1.50099 16 1.32757 15.9282 1.1997 15.8003C1.07183 15.6724 1 15.499 1 15.3182V1.68182C1 1.50099 1.07183 1.32757 1.1997 1.1997C1.32757 1.07183 1.50099 1 1.68182 1H15.3182C15.499 1 15.6724 1.07183 15.8003 1.1997C15.9282 1.32757 16 1.50099 16 1.68182V10.9449C16 11.0344 15.9824 11.1231 15.9481 11.2058C15.9138 11.2885 15.8636 11.3637 15.8003 11.427L11.427 15.8003C11.3637 15.8636 11.2885 15.9138 11.2058 15.9481C11.1231 15.9824 11.0344 16 10.9449 16Z" stroke="#5C72E8" stroke-linecap="round" stroke-linejoin="round"/>
</svg>
