<svg width="21" height="17" viewBox="0 0 21 17" fill="none" xmlns="http://www.w3.org/2000/svg">
<path fill-rule="evenodd" clip-rule="evenodd" d="M20.7568 8.5C20.7568 8.98563 20.3618 9.37931 19.8745 9.37931L1.63919 9.37931C1.15188 9.37931 0.756836 8.98563 0.756836 8.5C0.756836 8.01437 1.15188 7.62069 1.63919 7.62069L19.8745 7.62069C20.3618 7.62069 20.7568 8.01437 20.7568 8.5ZM16.4921 16.1207C16.4921 16.6063 16.0971 17 15.6098 17L1.63919 17C1.15188 17 0.756835 16.6063 0.756835 16.1207C0.756835 15.6351 1.15188 15.2414 1.63919 15.2414L15.6098 15.2414C16.0971 15.2414 16.4921 15.6351 16.4921 16.1207ZM11.9333 0.87931C11.9333 1.36494 11.5383 1.75862 11.051 1.75862L1.63919 1.75862C1.15188 1.75862 0.756836 1.36494 0.756836 0.879309C0.756836 0.39368 1.15188 -8.5696e-07 1.63919 -8.35659e-07L11.051 -4.24258e-07C11.5383 -4.02957e-07 11.9333 0.39368 11.9333 0.87931Z" fill="#5068E2"/>
</svg>
