<svg width="57" height="63" viewBox="0 0 57 63" fill="none" xmlns="http://www.w3.org/2000/svg">
<path d="M34.4166 2.93522L34.4203 2.9385L53.1666 19.3727C53.1673 19.3733 53.1679 19.3739 53.1686 19.3745C54.1036 20.2112 54.8505 21.2367 55.3601 22.3833C55.8701 23.5308 56.1308 24.7733 56.1249 26.029V26.0313V53.375C56.1249 55.7288 55.1899 57.9862 53.5255 59.6506C51.8611 61.315 49.6037 62.25 47.2499 62.25H9.74993C7.39613 62.25 5.13874 61.315 3.47436 59.6506C1.80997 57.9862 0.87493 55.7288 0.87493 53.375L0.874946 26.0625L0.874914 26.0585C0.864893 24.7979 1.12354 23.5497 1.63364 22.3969C2.14341 21.2448 2.89259 20.2145 3.83138 19.3744C3.832 19.3738 3.83263 19.3733 3.83325 19.3727L22.5795 2.9385L22.5796 2.93852L22.5833 2.9352C24.2104 1.47983 26.3169 0.675232 28.4999 0.675232C30.683 0.675232 32.7894 1.47983 34.4166 2.93522ZM34.7499 57H35.2499V56.5V40.875C35.2499 39.9136 34.868 38.9916 34.1882 38.3118C33.5084 37.6319 32.5863 37.25 31.6249 37.25H25.3749C24.4135 37.25 23.4915 37.6319 22.8117 38.3118C22.1318 38.9916 21.7499 39.9136 21.7499 40.875V56.5V57H22.2499H34.7499ZM40.4999 56.5V57H40.9999H47.2499C48.2113 57 49.1334 56.6181 49.8132 55.9383C50.493 55.2585 50.8749 54.3364 50.8749 53.375V26.0313V26.0306C50.8743 25.5159 50.764 25.0073 50.5515 24.5385C50.339 24.0697 50.0291 23.6516 49.6424 23.3119L49.6417 23.3112L30.8924 6.90564C30.8923 6.90551 30.8921 6.90539 30.892 6.90527C30.2305 6.32434 29.3803 6.00397 28.4999 6.00397C27.6196 6.00397 26.7693 6.32434 26.1079 6.90527C26.1077 6.90539 26.1076 6.90551 26.1074 6.90564L7.35818 23.3112L7.35743 23.3119C6.97076 23.6516 6.66086 24.0697 6.44834 24.5385C6.23583 25.0073 6.12558 25.5159 6.12493 26.0306V26.0313V53.375C6.12493 54.3364 6.50685 55.2585 7.18667 55.9383C7.86649 56.6181 8.78852 57 9.74993 57H15.9999H16.4999V56.5V40.875C16.4999 38.5212 17.435 36.2638 19.0994 34.5994C20.7637 32.9351 23.0211 32 25.3749 32H31.6249C33.9787 32 36.2361 32.9351 37.9005 34.5994C39.5649 36.2638 40.4999 38.5212 40.4999 40.875V56.5Z" fill="#5C72E8" stroke="white"/>
</svg>
