<svg width="18" height="18" viewBox="0 0 18 18" fill="none" xmlns="http://www.w3.org/2000/svg">
<path d="M8.99994 15.4354C12.5542 15.4354 15.4354 12.5542 15.4354 8.99994C15.4354 5.44572 12.5542 2.56445 8.99994 2.56445C5.44572 2.56445 2.56445 5.44572 2.56445 8.99994C2.56445 12.5542 5.44572 15.4354 8.99994 15.4354Z" stroke="url(#paint0_linear)" stroke-linecap="round" stroke-linejoin="round"/>
<path d="M8.46362 8.46362H8.99991V12.2177H9.5362" stroke="url(#paint1_linear)" stroke-linecap="round" stroke-linejoin="round"/>
<path d="M8.99987 6.85472C9.44415 6.85472 9.80431 6.49456 9.80431 6.05029C9.80431 5.60601 9.44415 5.24585 8.99987 5.24585C8.55559 5.24585 8.19543 5.60601 8.19543 6.05029C8.19543 6.49456 8.55559 6.85472 8.99987 6.85472Z" fill="url(#paint2_linear)"/>
<defs>
<linearGradient id="paint0_linear" x1="3.13954" y1="12.9899" x2="11.3551" y2="15.7076" gradientUnits="userSpaceOnUse">
<stop stop-color="#5C72E8"/>
<stop offset="1" stop-color="#5068E2"/>
</linearGradient>
<linearGradient id="paint1_linear" x1="8.51155" y1="11.5044" x2="9.26437" y2="11.5755" gradientUnits="userSpaceOnUse">
<stop stop-color="#5C72E8"/>
<stop offset="1" stop-color="#5068E2"/>
</linearGradient>
<linearGradient id="paint2_linear" x1="8.26732" y1="6.54904" x2="9.29427" y2="6.88875" gradientUnits="userSpaceOnUse">
<stop stop-color="#5C72E8"/>
<stop offset="1" stop-color="#5068E2"/>
</linearGradient>
</defs>
</svg>
