<svg width="18" height="18" viewBox="0 0 18 18" fill="none" xmlns="http://www.w3.org/2000/svg">
<path d="M8.22807 6.1985C8.06325 6.30838 7.94634 6.45891 7.86252 6.62656C7.72359 6.90442 7.38571 7.01705 7.10785 6.87812C6.82999 6.73918 6.71736 6.4013 6.85629 6.12344C7.00684 5.82234 7.24151 5.50412 7.60403 5.26244C7.97007 5.01841 8.43285 4.875 9.00003 4.875C9.49334 4.875 10.0268 5.02102 10.4508 5.33906C10.8899 5.66837 11.2032 6.17993 11.2032 6.84375C11.2032 7.61877 10.8186 8.1335 10.4331 8.50532C10.2912 8.6422 10.1343 8.77324 9.99898 8.88626C9.96032 8.91855 9.92315 8.9496 9.88887 8.97866C9.75196 9.09472 9.64499 9.19202 9.56253 9.28501V10.3125C9.56253 10.6232 9.31069 10.875 9.00003 10.875C8.68937 10.875 8.43753 10.6232 8.43753 10.3125V9.20737C8.43753 9.03025 8.48769 8.82944 8.62298 8.656C8.78716 8.44552 8.987 8.26835 9.16138 8.12052C9.20909 8.08008 9.25465 8.042 9.29849 8.00535L9.29923 8.00473C9.42794 7.89715 9.5419 7.80189 9.65211 7.69559C9.92767 7.42981 10.0782 7.18854 10.0782 6.84375C10.0782 6.57007 9.96174 6.3785 9.77581 6.23906C9.57487 6.08836 9.28797 6 9.00003 6C8.62971 6 8.38937 6.09096 8.22807 6.1985Z" fill="#5068E2"/>
<path d="M9.75 12.75C9.75 13.1642 9.41421 13.5 9 13.5C8.58579 13.5 8.25 13.1642 8.25 12.75C8.25 12.3358 8.58579 12 9 12C9.41421 12 9.75 12.3358 9.75 12.75Z" fill="#5068E2"/>
<path fill-rule="evenodd" clip-rule="evenodd" d="M9 0.75C4.44365 0.75 0.75 4.44365 0.75 9C0.75 13.5563 4.44365 17.25 9 17.25C13.5563 17.25 17.25 13.5563 17.25 9C17.25 4.44365 13.5563 0.75 9 0.75ZM1.875 9C1.875 5.06497 5.06497 1.875 9 1.875C12.935 1.875 16.125 5.06497 16.125 9C16.125 12.935 12.935 16.125 9 16.125C5.06497 16.125 1.875 12.935 1.875 9Z" fill="#5068E2"/>
</svg>
