<svg width="18" height="19" viewBox="0 0 18 19" fill="none" xmlns="http://www.w3.org/2000/svg">
<path d="M8.85425 13.3552C10.9834 13.3552 12.7095 11.6292 12.7095 9.5C12.7095 7.37082 10.9834 5.64478 8.85425 5.64478C6.72507 5.64478 4.99902 7.37082 4.99902 9.5C4.99902 11.6292 6.72507 13.3552 8.85425 13.3552Z" stroke="url(#paint0_linear)" stroke-width="1.4" stroke-linecap="round" stroke-linejoin="round"/>
<path d="M8.4426 2.76572L6.92705 1.6294C6.84574 1.56823 6.75105 1.52726 6.65079 1.50987C6.55054 1.49247 6.44758 1.49915 6.35041 1.52936C5.88104 1.67634 5.42565 1.86475 4.98964 2.09237C4.89938 2.13971 4.82167 2.20784 4.76293 2.29114C4.70419 2.37443 4.6661 2.4705 4.65181 2.57141L4.38389 4.44689C4.28177 4.53742 4.18179 4.63157 4.08395 4.72935C3.98615 4.82716 3.89197 4.92716 3.80143 5.02937L3.80138 5.0294L1.92624 5.29755C1.82548 5.3118 1.72956 5.34978 1.64637 5.40837C1.56318 5.46697 1.4951 5.54449 1.44775 5.63456C1.21978 6.07039 1.031 6.52562 0.883641 6.99488C0.853295 7.09218 0.846524 7.1953 0.863887 7.29574C0.881249 7.39617 0.922247 7.49103 0.983496 7.5725L2.12021 9.08811C2.11201 9.22433 2.10789 9.3616 2.10785 9.49992C2.10785 9.63824 2.11197 9.77555 2.12022 9.91184L2.12021 9.91189L0.983893 11.4274C0.922723 11.5088 0.881752 11.6034 0.864358 11.7037C0.846964 11.804 0.853644 11.9069 0.883848 12.0041C1.03083 12.4735 1.21924 12.9288 1.44686 13.3649C1.4942 13.4551 1.56233 13.5328 1.64563 13.5916C1.72892 13.6503 1.82499 13.6884 1.9259 13.7027L3.80138 13.9706C3.89191 14.0727 3.98606 14.1727 4.08384 14.2705C4.18164 14.3683 4.28165 14.4625 4.38386 14.5531L4.38389 14.5531L4.65204 16.4283C4.66629 16.529 4.70427 16.6249 4.76286 16.7081C4.82146 16.7913 4.89898 16.8594 4.98905 16.9067C5.42488 17.1347 5.88011 17.3235 6.34937 17.4709C6.44667 17.5012 6.54979 17.508 6.65023 17.4906C6.75066 17.4732 6.84552 17.4322 6.92699 17.371L8.44259 16.2343C8.57882 16.2425 8.71609 16.2466 8.85441 16.2466C8.99273 16.2466 9.13004 16.2425 9.26633 16.2343L9.26639 16.2343L10.7819 17.3706C10.8632 17.4318 10.9579 17.4727 11.0582 17.4901C11.1584 17.5075 11.2614 17.5008 11.3586 17.4706C11.8279 17.3237 12.2833 17.1352 12.7193 16.9076C12.8096 16.8603 12.8873 16.7922 12.9461 16.7089C13.0048 16.6256 13.0429 16.5295 13.0572 16.4286L13.3251 14.5531C13.4272 14.4626 13.5272 14.3684 13.625 14.2707C13.7228 14.1728 13.817 14.0728 13.9076 13.9706L13.9076 13.9706L15.7827 13.7024C15.8835 13.6882 15.9794 13.6502 16.0626 13.5916C16.1458 13.533 16.2139 13.4555 16.2612 13.3654C16.4892 12.9296 16.678 12.4744 16.8253 12.0051C16.8557 11.9078 16.8625 11.8047 16.8451 11.7043C16.8277 11.6038 16.7867 11.509 16.7255 11.4275L15.5888 9.9119C15.597 9.77568 15.6011 9.63841 15.6011 9.50008C15.6011 9.36176 15.597 9.22445 15.5888 9.08816L15.5888 9.08811L16.7251 7.57256C16.7863 7.49125 16.8272 7.39656 16.8446 7.2963C16.862 7.19605 16.8553 7.09309 16.8251 6.99592C16.6782 6.52655 16.4897 6.07116 16.2621 5.63514C16.2148 5.54488 16.1466 5.46718 16.0634 5.40844C15.9801 5.3497 15.884 5.31161 15.7831 5.29732L13.9076 5.0294C13.8171 4.92728 13.7229 4.8273 13.6251 4.72946C13.5273 4.63165 13.4273 4.53748 13.3251 4.44693L13.3251 4.44689L13.0569 2.57174C13.0427 2.47099 13.0047 2.37507 12.9461 2.29188C12.8875 2.20868 12.81 2.14061 12.7199 2.09326C12.2841 1.86529 11.8289 1.67651 11.3596 1.52915C11.2623 1.4988 11.1592 1.49203 11.0588 1.50939C10.9583 1.52676 10.8635 1.56775 10.782 1.629L9.26639 2.76572C9.13017 2.75752 8.99289 2.7534 8.85457 2.75336C8.71625 2.75336 8.57895 2.75748 8.44265 2.76573L8.4426 2.76572Z" stroke="url(#paint1_linear)" stroke-width="1.4" stroke-linecap="round" stroke-linejoin="round"/>
<defs>
<linearGradient id="paint0_linear" x1="5.34353" y1="11.8902" x2="10.2651" y2="13.5183" gradientUnits="userSpaceOnUse">
<stop stop-color="#5C72E8"/>
<stop offset="1" stop-color="#5068E2"/>
</linearGradient>
<linearGradient id="paint1_linear" x1="1.56939" y1="14.46" x2="11.7822" y2="17.8384" gradientUnits="userSpaceOnUse">
<stop stop-color="#5C72E8"/>
<stop offset="1" stop-color="#5068E2"/>
</linearGradient>
</defs>
</svg>
