<svg width="19" height="19" viewBox="0 0 19 19" fill="none" xmlns="http://www.w3.org/2000/svg">
<path d="M1 2V17C1 17.5523 1.44772 18 2 18H17C17.5523 18 18 17.5523 18 17V6.2459C18 5.95126 17.8701 5.67162 17.6449 5.48161L12.6127 1.23571C12.4323 1.08349 12.2039 1 11.9678 1H2C1.44772 1 1 1.44772 1 2Z" stroke="white"/>
<path d="M8 1.5V4C8 4.55228 8.44772 5 9 5H10C10.5523 5 11 4.55228 11 4V1.5" stroke="white"/>
<path d="M5 8H14C14.5523 8 15 8.44772 15 9C15 9.55228 14.5523 10 14 10H5C4.44772 10 4 9.55228 4 9C4 8.44772 4.44771 8 5 8Z" stroke="white"/>
<path d="M5 12H14C14.5523 12 15 12.4477 15 13C15 13.5523 14.5523 14 14 14H5C4.44772 14 4 13.5523 4 13C4 12.4477 4.44771 12 5 12Z" stroke="white"/>
</svg>
