<svg width="18" height="22" viewBox="0 0 18 22" fill="none" xmlns="http://www.w3.org/2000/svg">
<path d="M10 0C10.5523 0 11 0.447715 11 1V4C11 5.65685 12.3431 7 14 7H17C17.5523 7 18 7.44772 18 8V19C18 20.6569 16.6569 22 15 22H3C1.34315 22 0 20.6569 0 19V3C0 1.34315 1.34315 0 3 0H10Z" fill="#3A3A3A"/>
<path d="M13.9774 0.177514C13.4681 -0.0360621 13 0.447715 13 1V4C13 4.55228 13.4477 5 14 5H17C17.5523 5 18.0361 4.53189 17.8225 4.02257C17.73 3.80207 17.5972 3.59716 17.4142 3.41421L14.5858 0.585786C14.4028 0.40284 14.1979 0.26998 13.9774 0.177514Z" fill="#3A3A3A"/>
<path d="M13.9774 0.177505C13.4681 -0.0360716 13 0.447706 13 0.99999V3.99999C13 4.55228 13.4477 4.99999 14 4.99999H17C17.5523 4.99999 18.0361 4.53188 17.8225 4.02256C17.73 3.80206 17.5972 3.59715 17.4142 3.4142L14.5858 0.585777C14.4028 0.402831 14.1979 0.269971 13.9774 0.177505Z" fill="#0085FF"/>
<path d="M4.76674 15.165H3.21874V18H2.51674V11.7H3.21874V14.535H4.76674V11.7H5.46874V18H4.76674V15.165ZM7.81057 18H7.10857V12.339H5.94757V11.7H8.97157V12.339H7.81057V18ZM12.7811 12.933L11.7821 17.991H11.1071L10.0631 12.978V18H9.4511V11.7H10.4321L11.4671 16.731L12.4661 11.7H13.4471V18H12.7811V12.933ZM16.673 18H14.171V11.7H14.873V17.361H16.673V18Z" fill="white"/>
</svg>
