<svg width="18" height="22" viewBox="0 0 18 22" fill="none" xmlns="http://www.w3.org/2000/svg">
<path d="M10 0C10.5523 0 11 0.447715 11 1V4C11 5.65685 12.3431 7 14 7H17C17.5523 7 18 7.44772 18 8V19C18 20.6569 16.6569 22 15 22H3C1.34315 22 0 20.6569 0 19V3C0 1.34315 1.34315 0 3 0H10Z" fill="#3A3A3A"/>
<path d="M13.9774 0.177514C13.4681 -0.0360621 13 0.447715 13 1V4C13 4.55228 13.4477 5 14 5H17C17.5523 5 18.0361 4.53189 17.8225 4.02257C17.73 3.80207 17.5972 3.59716 17.4142 3.41421L14.5858 0.585786C14.4028 0.40284 14.1979 0.26998 13.9774 0.177514Z" fill="#3A3A3A"/>
<path d="M13.9774 0.177505C13.4681 -0.0360716 13 0.447706 13 0.99999V3.99999C13 4.55228 13.4477 4.99999 14 4.99999H17C17.5523 4.99999 18.0361 4.53188 17.8225 4.02256C17.73 3.80206 17.5972 3.59715 17.4142 3.4142L14.5858 0.585777C14.4028 0.402831 14.1979 0.269971 13.9774 0.177505Z" fill="#FF7ADA"/>
<path d="M3.50568 18V17.361C3.58368 17.367 3.70068 17.37 3.85668 17.37C4.10268 17.358 4.28568 17.286 4.40568 17.154C4.53168 17.016 4.59468 16.794 4.59468 16.488V11.7H5.28768V16.443C5.28768 17.463 4.84068 17.985 3.94668 18.009C3.70068 18.009 3.55368 18.006 3.50568 18ZM5.97963 11.7H7.35663C8.29863 11.7 8.76963 12.213 8.76963 13.239V13.995C8.76963 15.009 8.28063 15.516 7.30263 15.516H6.68163V18H5.97963V11.7ZM6.68163 14.886H7.30263C7.56663 14.886 7.76163 14.82 7.88763 14.688C8.01363 14.556 8.07663 14.34 8.07663 14.04V13.203C8.07663 12.909 8.01963 12.693 7.90563 12.555C7.79163 12.411 7.60863 12.339 7.35663 12.339H6.68163V14.886ZM10.0478 14.49H11.5868V15.12H10.0478V17.361H11.9378V18H9.34584V11.7H11.9378V12.339H10.0478V14.49ZM13.948 11.637C14.422 11.637 14.776 11.778 15.01 12.06C15.25 12.342 15.37 12.729 15.37 13.221V13.761H14.704V13.185C14.704 12.579 14.458 12.276 13.966 12.276C13.474 12.276 13.228 12.579 13.228 13.185V16.515C13.228 17.121 13.474 17.424 13.966 17.424C14.458 17.424 14.704 17.121 14.704 16.515V15.255H14.056V14.625H15.37V16.479C15.37 16.971 15.25 17.358 15.01 17.64C14.776 17.922 14.422 18.063 13.948 18.063C13.48 18.063 13.126 17.922 12.886 17.64C12.652 17.358 12.535 16.971 12.535 16.479V13.221C12.535 12.729 12.652 12.342 12.886 12.06C13.126 11.778 13.48 11.637 13.948 11.637Z" fill="white"/>
</svg>
