<svg width="18" height="22" viewBox="0 0 18 22" fill="none" xmlns="http://www.w3.org/2000/svg">
<path d="M10 0C10.5523 0 11 0.447715 11 1V4C11 5.65685 12.3431 7 14 7H17C17.5523 7 18 7.44772 18 8V19C18 20.6569 16.6569 22 15 22H3C1.34315 22 0 20.6569 0 19V3C0 1.34315 1.34315 0 3 0H10Z" fill="#3A3A3A"/>
<path d="M13.9774 0.177514C13.4681 -0.0360621 13 0.447715 13 1V4C13 4.55228 13.4477 5 14 5H17C17.5523 5 18.0361 4.53189 17.8225 4.02257C17.73 3.80207 17.5972 3.59716 17.4142 3.41421L14.5858 0.585786C14.4028 0.40284 14.1979 0.26998 13.9774 0.177514Z" fill="#3A3A3A"/>
<path d="M13.9774 0.177505C13.4681 -0.0360716 13 0.447706 13 0.99999V3.99999C13 4.55228 13.4477 4.99999 14 4.99999H17C17.5523 4.99999 18.0361 4.53188 17.8225 4.02256C17.73 3.80206 17.5972 3.59715 17.4142 3.4142L14.5858 0.585777C14.4028 0.402831 14.1979 0.269971 13.9774 0.177505Z" fill="#AD7AFF"/>
<path d="M4.62727 18V17.361C4.70527 17.367 4.82227 17.37 4.97827 17.37C5.22427 17.358 5.40727 17.286 5.52727 17.154C5.65327 17.016 5.71627 16.794 5.71627 16.488V11.7H6.40927V16.443C6.40927 17.463 5.96227 17.985 5.06827 18.009C4.82227 18.009 4.67527 18.006 4.62727 18ZM7.10121 11.7H8.47821C9.42021 11.7 9.89121 12.213 9.89121 13.239V13.995C9.89121 15.009 9.40221 15.516 8.42421 15.516H7.80321V18H7.10121V11.7ZM7.80321 14.886H8.42421C8.68821 14.886 8.88321 14.82 9.00921 14.688C9.13521 14.556 9.19821 14.34 9.19821 14.04V13.203C9.19821 12.909 9.14121 12.693 9.02721 12.555C8.91321 12.411 8.73021 12.339 8.47821 12.339H7.80321V14.886ZM11.8264 11.637C12.3004 11.637 12.6544 11.778 12.8884 12.06C13.1284 12.342 13.2484 12.729 13.2484 13.221V13.761H12.5824V13.185C12.5824 12.579 12.3364 12.276 11.8444 12.276C11.3524 12.276 11.1064 12.579 11.1064 13.185V16.515C11.1064 17.121 11.3524 17.424 11.8444 17.424C12.3364 17.424 12.5824 17.121 12.5824 16.515V15.255H11.9344V14.625H13.2484V16.479C13.2484 16.971 13.1284 17.358 12.8884 17.64C12.6544 17.922 12.3004 18.063 11.8264 18.063C11.3584 18.063 11.0044 17.922 10.7644 17.64C10.5304 17.358 10.4134 16.971 10.4134 16.479V13.221C10.4134 12.729 10.5304 12.342 10.7644 12.06C11.0044 11.778 11.3584 11.637 11.8264 11.637Z" fill="white"/>
</svg>
