<svg width="63" height="61" viewBox="0 0 63 61" fill="none" xmlns="http://www.w3.org/2000/svg">
<path d="M34.125 32.0626V32.5626H34.625H37.75C38.4462 32.5626 39.1139 32.8391 39.6062 33.3314C40.0984 33.8237 40.375 34.4914 40.375 35.1876C40.375 35.8838 40.0984 36.5514 39.6062 37.0437C39.1139 37.536 38.4462 37.8126 37.75 37.8126H34.625H34.125V38.3126V41.4376C34.125 42.1338 33.8484 42.8014 33.3562 43.2937C32.8639 43.786 32.1962 44.0626 31.5 44.0626C30.8038 44.0626 30.1361 43.786 29.6438 43.2937C29.1516 42.8014 28.875 42.1338 28.875 41.4376V38.3126V37.8126H28.375H25.25C24.5538 37.8126 23.8861 37.536 23.3938 37.0437C22.9016 36.5514 22.625 35.8838 22.625 35.1876C22.625 34.4914 22.9016 33.8237 23.3938 33.3314C23.8861 32.8391 24.5538 32.5626 25.25 32.5626H28.375H28.875V32.0626V28.9376C28.875 28.2414 29.1516 27.5737 29.6438 27.0814C30.1361 26.5891 30.8038 26.3126 31.5 26.3126C32.1962 26.3126 32.8639 26.5891 33.3562 27.0814C33.8484 27.5737 34.125 28.2414 34.125 28.9376V32.0626ZM33.2738 10.34L33.385 10.6876H33.75H53.375C55.7288 10.6876 57.9862 11.6226 59.6506 13.287C61.315 14.9514 62.25 17.2088 62.25 19.5626V50.8126C62.25 53.1664 61.315 55.4238 59.6506 57.0881C57.9862 58.7525 55.7288 59.6876 53.375 59.6876H9.625C7.2712 59.6876 5.01381 58.7525 3.34943 57.0881C1.68504 55.4238 0.75 53.1664 0.75 50.8126V10.1876C0.75 7.83377 1.68504 5.57638 3.34943 3.912C5.01381 2.24761 7.2712 1.31257 9.625 1.31257L23.875 1.31257L23.8769 1.31257C25.7181 1.30547 27.5158 1.87115 29.0212 2.93125C30.5245 3.98992 31.6618 5.48933 32.2761 7.22222L33.2738 10.34ZM23.8743 6.56257H9.625C8.66359 6.56257 7.74156 6.94449 7.06174 7.62431C6.38192 8.30413 6 9.22616 6 10.1876V50.8126C6 51.774 6.38192 52.696 7.06174 53.3758C7.74156 54.0557 8.66359 54.4376 9.625 54.4376H53.375C54.3364 54.4376 55.2584 54.0557 55.9383 53.3758C56.6181 52.696 57 51.774 57 50.8126V19.5626C57 18.6012 56.6181 17.6791 55.9383 16.9993C55.2584 16.3195 54.3364 15.9376 53.375 15.9376L31.5 15.9376L31.4987 15.9376C30.9484 15.939 30.4116 15.7674 29.9641 15.4471C29.5171 15.1272 29.1818 14.675 29.0056 14.1544C29.0054 14.1538 29.0052 14.1532 29.005 14.1526L27.3187 9.03119L27.3175 9.02757C27.0743 8.30757 26.611 7.68221 25.993 7.23987C25.3752 6.79765 24.634 6.56073 23.8743 6.56257Z" fill="white" stroke="white"/>
</svg>
