<svg width="18" height="22" viewBox="0 0 18 22" fill="none" xmlns="http://www.w3.org/2000/svg">
<path d="M10 0C10.5523 0 11 0.447715 11 1V4C11 5.65685 12.3431 7 14 7H17C17.5523 7 18 7.44772 18 8V19C18 20.6569 16.6569 22 15 22H3C1.34315 22 0 20.6569 0 19V3C0 1.34315 1.34315 0 3 0H10Z" fill="#3A3A3A"/>
<path d="M13.9774 0.177514C13.4681 -0.0360621 13 0.447715 13 1V4C13 4.55228 13.4477 5 14 5H17C17.5523 5 18.0361 4.53189 17.8225 4.02257C17.73 3.80207 17.5972 3.59716 17.4142 3.41421L14.5858 0.585786C14.4028 0.40284 14.1979 0.26998 13.9774 0.177514Z" fill="#3A3A3A"/>
<path d="M13.9774 0.177505C13.4681 -0.0360716 13 0.447706 13 0.99999V3.99999C13 4.55228 13.4477 4.99999 14 4.99999H17C17.5523 4.99999 18.0361 4.53188 17.8225 4.02256C17.73 3.80206 17.5972 3.59715 17.4142 3.4142L14.5858 0.585777C14.4028 0.402831 14.1979 0.269971 13.9774 0.177505Z" fill="#FF7A7A"/>
<path d="M4.36 11.7V18H5.062V15.516H5.683C6.682 15.516 7.15 14.994 7.15 13.995V13.239C7.15 12.285 6.727 11.7 5.737 11.7H4.36ZM5.062 14.886V12.339H5.737C6.25 12.339 6.457 12.627 6.457 13.203V14.04C6.457 14.643 6.205 14.886 5.683 14.886H5.062ZM7.69984 11.7V18H9.17584C10.1568 18 10.6068 17.406 10.6068 16.443V13.266C10.6068 12.294 10.1568 11.7 9.17584 11.7H7.69984ZM8.40184 17.361V12.339H9.15784C9.67084 12.339 9.91384 12.654 9.91384 13.23V16.47C9.91384 17.046 9.67084 17.361 9.16684 17.361H8.40184ZM11.9702 14.634V12.339H13.7702V11.7H11.2682V18H11.9702V15.273H13.4192V14.634H11.9702Z" fill="white"/>
</svg>
