<svg width="18" height="22" viewBox="0 0 18 22" fill="none" xmlns="http://www.w3.org/2000/svg">
<path d="M10 0C10.5523 0 11 0.447715 11 1V4C11 5.65685 12.3431 7 14 7H17C17.5523 7 18 7.44772 18 8V19C18 20.6569 16.6569 22 15 22H3C1.34315 22 0 20.6569 0 19V3C0 1.34315 1.34315 0 3 0H10Z" fill="#3A3A3A"/>
<path d="M13.9774 0.177514C13.4681 -0.0360621 13 0.447715 13 1V4C13 4.55228 13.4477 5 14 5H17C17.5523 5 18.0361 4.53189 17.8225 4.02257C17.73 3.80207 17.5972 3.59716 17.4142 3.41421L14.5858 0.585786C14.4028 0.40284 14.1979 0.26998 13.9774 0.177514Z" fill="#3A3A3A"/>
<path d="M13.9774 0.177505C13.4681 -0.0360716 13 0.447706 13 0.99999V3.99999C13 4.55228 13.4477 4.99999 14 4.99999H17C17.5523 4.99999 18.0361 4.53188 17.8225 4.02256C17.73 3.80206 17.5972 3.59715 17.4142 3.4142L14.5858 0.585777C14.4028 0.402831 14.1979 0.269971 13.9774 0.177505Z" fill="#48B8D0"/>
<path d="M4.61293 11.7H5.98993C6.93193 11.7 7.40293 12.213 7.40293 13.239V13.995C7.40293 15.009 6.91393 15.516 5.93593 15.516H5.31493V18H4.61293V11.7ZM5.31493 14.886H5.93593C6.19993 14.886 6.39493 14.82 6.52093 14.688C6.64693 14.556 6.70993 14.34 6.70993 14.04V13.203C6.70993 12.909 6.65293 12.693 6.53893 12.555C6.42493 12.411 6.24193 12.339 5.98993 12.339H5.31493V14.886ZM8.60014 12.906V18H7.97014V11.7H8.86114L10.3191 16.254V11.7H10.9401V18H10.2111L8.60014 12.906ZM13.0208 11.637C13.4948 11.637 13.8488 11.778 14.0828 12.06C14.3228 12.342 14.4428 12.729 14.4428 13.221V13.761H13.7768V13.185C13.7768 12.579 13.5308 12.276 13.0388 12.276C12.5468 12.276 12.3008 12.579 12.3008 13.185V16.515C12.3008 17.121 12.5468 17.424 13.0388 17.424C13.5308 17.424 13.7768 17.121 13.7768 16.515V15.255H13.1288V14.625H14.4428V16.479C14.4428 16.971 14.3228 17.358 14.0828 17.64C13.8488 17.922 13.4948 18.063 13.0208 18.063C12.5528 18.063 12.1988 17.922 11.9588 17.64C11.7248 17.358 11.6078 16.971 11.6078 16.479V13.221C11.6078 12.729 11.7248 12.342 11.9588 12.06C12.1988 11.778 12.5528 11.637 13.0208 11.637Z" fill="white"/>
</svg>
