<svg width="18" height="22" viewBox="0 0 18 22" fill="none" xmlns="http://www.w3.org/2000/svg">
<path d="M10 0C10.5523 0 11 0.447715 11 1V4C11 5.65685 12.3431 7 14 7H17C17.5523 7 18 7.44772 18 8V19C18 20.6569 16.6569 22 15 22H3C1.34315 22 0 20.6569 0 19V3C0 1.34315 1.34315 0 3 0H10Z" fill="#3A3A3A"/>
<path d="M13.9774 0.177514C13.4681 -0.0360621 13 0.447715 13 1V4C13 4.55228 13.4477 5 14 5H17C17.5523 5 18.0361 4.53189 17.8225 4.02257C17.73 3.80207 17.5972 3.59716 17.4142 3.41421L14.5858 0.585786C14.4028 0.40284 14.1979 0.26998 13.9774 0.177514Z" fill="#3A3A3A"/>
<path d="M13.9774 0.177505C13.4681 -0.0360716 13 0.447706 13 0.99999V3.99999C13 4.55228 13.4477 4.99999 14 4.99999H17C17.5523 4.99999 18.0361 4.53188 17.8225 4.02256C17.73 3.80206 17.5972 3.59715 17.4142 3.4142L14.5858 0.585777C14.4028 0.402831 14.1979 0.269971 13.9774 0.177505Z" fill="#A58F44"/>
<path d="M4.86996 12.051C5.10396 11.775 5.45196 11.637 5.91396 11.637C6.37596 11.637 6.72396 11.778 6.95796 12.06C7.19796 12.336 7.31796 12.72 7.31796 13.212V13.383H6.65196V13.176C6.65196 12.576 6.41196 12.276 5.93196 12.276C5.45196 12.276 5.21196 12.573 5.21196 13.167C5.21196 13.389 5.26296 13.596 5.36496 13.788C5.47296 13.974 5.60496 14.133 5.76096 14.265C5.91696 14.391 6.08496 14.535 6.26496 14.697C6.45096 14.853 6.62196 15.006 6.77796 15.156C6.93396 15.3 7.06296 15.489 7.16496 15.723C7.27296 15.957 7.32696 16.212 7.32696 16.488C7.32696 16.98 7.20696 17.367 6.96696 17.649C6.72696 17.925 6.37296 18.063 5.90496 18.063C5.43696 18.063 5.08296 17.925 4.84296 17.649C4.60896 17.367 4.49196 16.98 4.49196 16.488V16.128H5.14896V16.524C5.14896 17.124 5.39496 17.424 5.88696 17.424C6.37896 17.424 6.62496 17.124 6.62496 16.524C6.62496 16.332 6.58596 16.155 6.50796 15.993C6.42996 15.831 6.32796 15.687 6.20196 15.561C6.08196 15.435 5.94696 15.312 5.79696 15.192C5.64696 15.072 5.49696 14.946 5.34696 14.814C5.19696 14.682 5.05896 14.544 4.93296 14.4C4.81296 14.256 4.71396 14.082 4.63596 13.878C4.55796 13.674 4.51896 13.452 4.51896 13.212C4.51896 12.714 4.63596 12.327 4.86996 12.051ZM7.7508 11.7H8.4618L9.4878 17.181L10.5048 11.7H11.1528L9.9738 18H8.9388L7.7508 11.7ZM13.0427 11.637C13.5167 11.637 13.8707 11.778 14.1047 12.06C14.3447 12.342 14.4647 12.729 14.4647 13.221V13.761H13.7987V13.185C13.7987 12.579 13.5527 12.276 13.0607 12.276C12.5687 12.276 12.3227 12.579 12.3227 13.185V16.515C12.3227 17.121 12.5687 17.424 13.0607 17.424C13.5527 17.424 13.7987 17.121 13.7987 16.515V15.255H13.1507V14.625H14.4647V16.479C14.4647 16.971 14.3447 17.358 14.1047 17.64C13.8707 17.922 13.5167 18.063 13.0427 18.063C12.5747 18.063 12.2207 17.922 11.9807 17.64C11.7467 17.358 11.6297 16.971 11.6297 16.479V13.221C11.6297 12.729 11.7467 12.342 11.9807 12.06C12.2207 11.778 12.5747 11.637 13.0427 11.637Z" fill="white"/>
</svg>
