<svg width="18" height="22" viewBox="0 0 18 22" fill="none" xmlns="http://www.w3.org/2000/svg">
<path d="M10 0C10.5523 0 11 0.447715 11 1V4C11 5.65685 12.3431 7 14 7H17C17.5523 7 18 7.44772 18 8V19C18 20.6569 16.6569 22 15 22H3C1.34315 22 0 20.6569 0 19V3C0 1.34315 1.34315 0 3 0H10Z" fill="#3A3A3A"/>
<path d="M13.9774 0.177514C13.4681 -0.0360621 13 0.447715 13 1V4C13 4.55228 13.4477 5 14 5H17C17.5523 5 18.0361 4.53189 17.8225 4.02257C17.73 3.80207 17.5972 3.59716 17.4142 3.41421L14.5858 0.585786C14.4028 0.40284 14.1979 0.26998 13.9774 0.177514Z" fill="#3A3A3A"/>
<path d="M13.9774 0.177505C13.4681 -0.0360716 13 0.447706 13 0.99999V3.99999C13 4.55228 13.4477 4.99999 14 4.99999H17C17.5523 4.99999 18.0361 4.53188 17.8225 4.02256C17.73 3.80206 17.5972 3.59715 17.4142 3.4142L14.5858 0.585777C14.4028 0.402831 14.1979 0.269971 13.9774 0.177505Z" fill="#466F9F"/>
<path d="M6.2549 18H5.5529V12.339H4.3919V11.7H7.4159V12.339H6.2549V18ZM10.5144 18L9.47043 15.282L8.41743 18H7.75143L9.02043 14.751L7.83243 11.7H8.56143L9.53343 14.22L10.5144 11.7H11.1714L9.99243 14.751L11.2524 18H10.5144ZM13.4356 18H12.7336V12.339H11.5726V11.7H14.5966V12.339H13.4356V18Z" fill="white"/>
</svg>
