<svg width="63" height="63" viewBox="0 0 63 63" fill="none" xmlns="http://www.w3.org/2000/svg">
<path d="M9.5 8.90625V10.0756L10.3454 9.26775C16.0447 3.82182 23.6179 0.772666 31.5007 0.75C37.5822 0.750142 43.5272 2.55359 48.5838 5.93231C53.6406 9.31116 57.5819 14.1137 59.9093 19.7325C62.2367 25.3513 62.8456 31.5341 61.6591 37.499C60.4727 43.4639 57.544 48.9431 53.2435 53.2435C48.9431 57.544 43.4639 60.4727 37.499 61.6591C31.5341 62.8456 25.3513 62.2367 19.7325 59.9093C14.1137 57.5819 9.31116 53.6406 5.93231 48.5838C2.55346 43.527 0.75 37.5818 0.75 31.5C0.75 30.8038 1.02656 30.1361 1.51884 29.6438C2.01113 29.1516 2.67881 28.875 3.375 28.875C4.07119 28.875 4.73887 29.1516 5.23115 29.6438C5.72322 30.1359 5.99976 30.8032 6 31.4991C5.97725 37.4266 8.02019 43.1768 11.7776 47.7613C15.5353 52.346 20.7729 55.4784 26.5898 56.6198C32.4068 57.7612 38.4397 56.8403 43.6513 54.0155C48.8628 51.1907 52.9274 46.6385 55.1462 41.1415C57.365 35.6445 57.5993 29.5463 55.8089 23.8952C54.0185 18.2442 50.3153 13.3934 45.3358 10.177C40.3564 6.96061 34.412 5.57949 28.5246 6.27113C22.6372 6.96277 17.1747 9.68395 13.0763 13.9668L12.267 14.8125H13.4375H20.9375C21.6337 14.8125 22.3014 15.0891 22.7937 15.5813C23.2859 16.0736 23.5625 16.7413 23.5625 17.4375C23.5625 18.1337 23.2859 18.8014 22.7937 19.2937C22.3014 19.7859 21.6337 20.0625 20.9375 20.0625H6.875C6.17881 20.0625 5.51113 19.7859 5.01885 19.2937C4.52656 18.8014 4.25 18.1337 4.25 17.4375V3.375C4.25 2.67881 4.52656 2.01113 5.01884 1.51884C5.51113 1.02656 6.17881 0.75 6.875 0.75C7.57119 0.75 8.23887 1.02656 8.73115 1.51884C9.22344 2.01113 9.5 2.67881 9.5 3.375V8.90625Z" fill="white" stroke="white"/>
</svg>
