<svg width="63" height="61" viewBox="0 0 63 61" fill="none" xmlns="http://www.w3.org/2000/svg">
<path d="M32.4975 26.5251L32.4975 26.5252L32.5067 26.5288C32.8273 26.6531 33.1204 26.8391 33.3692 27.0764L39.6152 33.3224L39.6167 33.3238C39.8627 33.5678 40.058 33.8582 40.1912 34.1781C40.3245 34.4979 40.3931 34.841 40.3931 35.1876C40.3931 35.5341 40.3245 35.8772 40.1912 36.1971C40.058 36.517 39.8627 36.8073 39.6166 37.0513L39.6138 37.0542C39.3697 37.3003 39.0794 37.4955 38.7595 37.6288C38.4396 37.7621 38.0965 37.8307 37.75 37.8307C37.4035 37.8307 37.0604 37.7621 36.7405 37.6288C36.4216 37.4959 36.132 37.3014 35.8884 37.0564C35.8877 37.0557 35.887 37.055 35.8863 37.0542L34.9845 36.1213L34.125 35.2322V36.4688V44.5626C34.125 45.2588 33.8484 45.9265 33.3562 46.4187C32.8639 46.911 32.1962 47.1876 31.5 47.1876C30.8038 47.1876 30.1361 46.911 29.6438 46.4187C29.1516 45.9265 28.875 45.2588 28.875 44.5626V36.4688V35.2322L28.0155 36.1213L27.1123 37.0557C26.6179 37.5485 25.9482 37.8254 25.25 37.8254C24.5504 37.8254 23.8795 37.5475 23.3848 37.0528C22.8901 36.5581 22.6122 35.8872 22.6122 35.1876C22.6122 34.488 22.8901 33.8171 23.3848 33.3224L29.6308 27.0764C29.8796 26.8391 30.1727 26.6531 30.4933 26.5288L30.4933 26.5288L30.5025 26.5251C31.1416 26.2625 31.8584 26.2625 32.4975 26.5251ZM33.2738 10.34L33.385 10.6876H33.75H53.375C55.7288 10.6876 57.9862 11.6226 59.6506 13.287C61.315 14.9514 62.25 17.2088 62.25 19.5626V50.8126C62.25 53.1664 61.315 55.4238 59.6506 57.0882C57.9862 58.7525 55.7288 59.6876 53.375 59.6876H9.625C7.2712 59.6876 5.01381 58.7525 3.34943 57.0882C1.68504 55.4238 0.75 53.1664 0.75 50.8126V10.1876C0.75 7.83378 1.68504 5.57638 3.34943 3.912C5.01381 2.24761 7.2712 1.31257 9.625 1.31257L23.875 1.31257L23.8769 1.31257C25.7181 1.30547 27.5158 1.87115 29.0212 2.93125C30.5245 3.98992 31.6618 5.48933 32.2761 7.22223L33.2738 10.34ZM27.3187 9.03119L27.3175 9.02757L23.875 6.56257H23.8743H9.625C8.66359 6.56257 7.74156 6.94449 7.06174 7.62431C6.38192 8.30413 6 9.22616 6 10.1876V50.8126C6 51.774 6.38192 52.696 7.06174 53.3758C7.74156 54.0557 8.66359 54.4376 9.625 54.4376H53.375C54.3364 54.4376 55.2584 54.0557 55.9383 53.3758C56.6181 52.696 57 51.774 57 50.8126V19.5626C57 18.6012 56.6181 17.6791 55.9383 16.9993C55.2584 16.3195 54.3364 15.9376 53.375 15.9376L31.5 15.9376L31.4987 15.9376C30.9484 15.939 30.4116 15.7674 29.9641 15.4471C29.5171 15.1272 29.1818 14.675 29.0056 14.1544C29.0054 14.1538 29.0052 14.1532 29.005 14.1526L27.3187 9.03119Z" fill="white" stroke="white"/>
</svg>
