<svg width="18" height="22" viewBox="0 0 18 22" fill="none" xmlns="http://www.w3.org/2000/svg">
<path d="M10 0C10.5523 0 11 0.447715 11 1V4C11 5.65685 12.3431 7 14 7H17C17.5523 7 18 7.44772 18 8V19C18 20.6569 16.6569 22 15 22H3C1.34315 22 0 20.6569 0 19V3C0 1.34315 1.34315 0 3 0H10Z" fill="#3A3A3A"/>
<path d="M13.9774 0.177514C13.4681 -0.0360621 13 0.447715 13 1V4C13 4.55228 13.4477 5 14 5H17C17.5523 5 18.0361 4.53189 17.8225 4.02257C17.73 3.80207 17.5972 3.59716 17.4142 3.41421L14.5858 0.585786C14.4028 0.40284 14.1979 0.26998 13.9774 0.177514Z" fill="#3A3A3A"/>
<path d="M13.9774 0.177505C13.4681 -0.0360716 13 0.447706 13 0.99999V3.99999C13 4.55228 13.4477 4.99999 14 4.99999H17C17.5523 4.99999 18.0361 4.53188 17.8225 4.02256C17.73 3.80206 17.5972 3.59715 17.4142 3.4142L14.5858 0.585777C14.4028 0.402831 14.1979 0.269971 13.9774 0.177505Z" fill="#7AB7FF"/>
<path d="M4.36 11.7V18H5.836C6.817 18 7.267 17.406 7.267 16.443V13.266C7.267 12.294 6.817 11.7 5.836 11.7H4.36ZM5.062 17.361V12.339H5.818C6.331 12.339 6.574 12.654 6.574 13.23V16.47C6.574 17.046 6.331 17.361 5.827 17.361H5.062ZM7.87436 16.479C7.87436 17.433 8.35136 18.063 9.31436 18.063C10.2864 18.063 10.7634 17.433 10.7634 16.479V13.221C10.7634 12.258 10.2864 11.637 9.31436 11.637C8.35136 11.637 7.87436 12.258 7.87436 13.221V16.479ZM8.56736 13.185C8.56736 12.618 8.81036 12.276 9.31436 12.276C9.82736 12.276 10.0614 12.618 10.0614 13.185V16.515C10.0614 17.091 9.82736 17.424 9.31436 17.424C8.81036 17.424 8.56736 17.091 8.56736 16.515V13.185ZM12.7854 11.637C11.8224 11.637 11.3724 12.267 11.3724 13.221V16.479C11.3724 17.433 11.8224 18.063 12.7854 18.063C13.7574 18.063 14.2074 17.433 14.2074 16.479V15.696H13.5414V16.515C13.5414 17.082 13.3164 17.424 12.8034 17.424C12.2994 17.424 12.0654 17.082 12.0654 16.515V13.185C12.0654 12.618 12.2994 12.276 12.8034 12.276C13.3164 12.276 13.5414 12.618 13.5414 13.185V13.788H14.2074V13.221C14.2074 12.267 13.7574 11.637 12.7854 11.637Z" fill="white"/>
</svg>
