<svg width="18" height="22" viewBox="0 0 18 22" fill="none" xmlns="http://www.w3.org/2000/svg">
<path d="M10 0C10.5523 0 11 0.447715 11 1V4C11 5.65685 12.3431 7 14 7H17C17.5523 7 18 7.44772 18 8V19C18 20.6569 16.6569 22 15 22H3C1.34315 22 0 20.6569 0 19V3C0 1.34315 1.34315 0 3 0H10Z" fill="#3A3A3A"/>
<path d="M13.9774 0.177514C13.4681 -0.0360621 13 0.447715 13 1V4C13 4.55228 13.4477 5 14 5H17C17.5523 5 18.0361 4.53189 17.8225 4.02257C17.73 3.80207 17.5972 3.59716 17.4142 3.41421L14.5858 0.585786C14.4028 0.40284 14.1979 0.26998 13.9774 0.177514Z" fill="#3A3A3A"/>
<path d="M13.9774 0.177505C13.4681 -0.0360716 13 0.447706 13 0.99999V3.99999C13 4.55228 13.4477 4.99999 14 4.99999H17C17.5523 4.99999 18.0361 4.53188 17.8225 4.02256C17.73 3.80206 17.5972 3.59715 17.4142 3.4142L14.5858 0.585777C14.4028 0.402831 14.1979 0.269971 13.9774 0.177505Z" fill="#156ED6"/>
<path d="M8.5229 17.361V18H5.6609V17.37L7.8209 12.339H5.7599V11.7H8.5409V12.33L6.3719 17.361H8.5229ZM9.17006 11.7H9.87206V18H9.17006V11.7ZM10.5939 11.7H11.9709C12.9129 11.7 13.3839 12.213 13.3839 13.239V13.995C13.3839 15.009 12.8949 15.516 11.9169 15.516H11.2959V18H10.5939V11.7ZM11.2959 14.886H11.9169C12.1809 14.886 12.3759 14.82 12.5019 14.688C12.6279 14.556 12.6909 14.34 12.6909 14.04V13.203C12.6909 12.909 12.6339 12.693 12.5199 12.555C12.4059 12.411 12.2229 12.339 11.9709 12.339H11.2959V14.886Z" fill="white"/>
</svg>
